<?xml version="1.0" encoding="iso-8859-1"?>
<!-- Generator: Adobe Illustrator 16.0.0, SVG Export Plug-In . SVG Version: 6.00 Build 0)  -->
<!DOCTYPE svg PUBLIC "-//W3C//DTD SVG 1.1//EN" "http://www.w3.org/Graphics/SVG/1.1/DTD/svg11.dtd">
<svg version="1.1" id="Capa_1" xmlns="http://www.w3.org/2000/svg" xmlns:xlink="http://www.w3.org/1999/xlink" x="0px" y="0px"
	 width="71.378px" height="71.379px" viewBox="0 0 71.378 71.379" style="enable-background:new 0 0 71.378 71.379;"
	 xml:space="preserve">
<g>
	<g>
		<g>
			<path d="M17.166,44.724c0.672,0.672,1.12,1.118,1.792,1.565c-0.896-4.031-0.672-8.062,0.448-12.095l-7.616-7.393
				c-3.808-3.809-3.584-10.305,0.672-14.336c4.032-4.031,10.528-4.256,14.336-0.672l11.647,11.648
				c3.809,3.809,3.584,10.305-0.672,14.335c-1.344,1.344-2.913,2.24-4.479,2.688c-0.224,2.019,0.448,3.81,1.792,5.151l2.688,2.688
				c2.24-0.896,4.479-2.465,6.271-4.256c7.616-7.615,7.841-19.711,0.672-27.104L33.069,5.3C25.678-2.092,13.582-1.645,5.965,5.973
				c-7.616,7.615-7.84,19.712-0.672,27.104L17.166,44.724z"/>
			<path d="M65.998,38.45L54.351,26.805c-0.673-0.672-1.119-1.12-1.792-1.568c0.896,4.032,0.673,8.064-0.448,12.097l7.616,7.614
				c3.808,3.81,3.584,10.306-0.672,14.336c-4.032,4.032-10.528,4.257-14.337,0.673L33.069,48.308
				c-3.808-3.81-3.584-10.306,0.672-14.335c1.344-1.344,2.913-2.24,4.48-2.688c0.224-2.016-0.448-3.808-1.792-5.151l-2.913-3.137
				c-2.24,0.896-4.48,2.465-6.272,4.256c-7.616,7.616-7.84,19.711-0.672,27.104l11.648,11.646
				c7.392,7.394,19.486,6.943,27.104-0.672C72.941,57.715,73.391,45.842,65.998,38.45z"/>
			<polygon points="14.925,48.53 8.207,48.53 8.207,56.594 0.143,56.594 0.143,63.315 8.207,63.315 8.207,71.379 14.925,71.379 
				14.925,63.315 22.99,63.315 22.99,56.594 14.925,56.594 			"/>
		</g>
	</g>
</g>
<g>
</g>
<g>
</g>
<g>
</g>
<g>
</g>
<g>
</g>
<g>
</g>
<g>
</g>
<g>
</g>
<g>
</g>
<g>
</g>
<g>
</g>
<g>
</g>
<g>
</g>
<g>
</g>
<g>
</g>
</svg>
